<?xml version="1.0" encoding="utf-8"?>
<svg viewBox="402.469 56.367 145.892 43.643" width="145.892px" height="43.643px" style="enable-background:new 0 0 400 1000;" xmlns="http://www.w3.org/2000/svg">
  <defs>
    <style>.cls-1,.cls-100,.cls-101,.cls-103,.cls-104,.cls-109,.cls-117,.cls-118,.cls-126,.cls-133,.cls-134,.cls-137,.cls-149,.cls-152,.cls-153,.cls-154,.cls-156,.cls-157,.cls-158,.cls-165,.cls-17,.cls-18,.cls-19,.cls-20,.cls-22,.cls-23,.cls-27,.cls-28,.cls-29,.cls-3,.cls-30,.cls-31,.cls-37,.cls-38,.cls-4,.cls-40,.cls-41,.cls-42,.cls-45,.cls-46,.cls-47,.cls-5,.cls-66,.cls-67,.cls-68,.cls-7,.cls-83,.cls-87,.cls-9,.cls-92,.cls-93,.cls-97,.cls-99{fill:none;}.cls-127,.cls-166,.cls-2,.cls-33,.cls-91{fill:#4262f0;}.cls-100,.cls-11,.cls-125,.cls-127,.cls-134,.cls-137,.cls-138,.cls-148,.cls-166,.cls-2,.cls-40,.cls-41,.cls-87,.cls-91{stroke:#4262f0;}.cls-10,.cls-100,.cls-101,.cls-103,.cls-104,.cls-107,.cls-109,.cls-11,.cls-12,.cls-126,.cls-13,.cls-132,.cls-148,.cls-157,.cls-158,.cls-16,.cls-166,.cls-171,.cls-19,.cls-2,.cls-20,.cls-27,.cls-28,.cls-29,.cls-37,.cls-38,.cls-4,.cls-41,.cls-43,.cls-44,.cls-45,.cls-66,.cls-67,.cls-68,.cls-7,.cls-81,.cls-84,.cls-85,.cls-87,.cls-92,.cls-93,.cls-94,.cls-95,.cls-96,.cls-99{stroke-miterlimit:10;}.cls-110,.cls-133,.cls-153,.cls-27,.cls-3,.cls-84{stroke:#fff;}.cls-103,.cls-104,.cls-105,.cls-107,.cls-108,.cls-110,.cls-117,.cls-118,.cls-119,.cls-120,.cls-121,.cls-122,.cls-123,.cls-124,.cls-125,.cls-127,.cls-128,.cls-129,.cls-133,.cls-135,.cls-136,.cls-137,.cls-138,.cls-149,.cls-150,.cls-152,.cls-153,.cls-154,.cls-155,.cls-156,.cls-158,.cls-159,.cls-17,.cls-18,.cls-19,.cls-20,.cls-22,.cls-24,.cls-25,.cls-27,.cls-29,.cls-3,.cls-31,.cls-37,.cls-39,.cls-40,.cls-41,.cls-42,.cls-46,.cls-5,.cls-64,.cls-66,.cls-68,.cls-7,.cls-83,.cls-85,.cls-88,.cls-89,.cls-90,.cls-91,.cls-92,.cls-93,.cls-96,.cls-97,.cls-99{stroke-linecap:round;}.cls-105,.cls-108,.cls-110,.cls-117,.cls-118,.cls-119,.cls-120,.cls-121,.cls-122,.cls-123,.cls-124,.cls-125,.cls-127,.cls-128,.cls-129,.cls-133,.cls-134,.cls-135,.cls-136,.cls-137,.cls-138,.cls-149,.cls-150,.cls-153,.cls-154,.cls-155,.cls-159,.cls-165,.cls-17,.cls-18,.cls-22,.cls-23,.cls-24,.cls-25,.cls-3,.cls-30,.cls-31,.cls-35,.cls-39,.cls-40,.cls-42,.cls-46,.cls-47,.cls-5,.cls-64,.cls-83,.cls-88,.cls-89,.cls-90,.cls-91,.cls-97{stroke-linejoin:round;}.cls-10,.cls-108,.cls-150,.cls-154,.cls-157,.cls-158,.cls-16,.cls-23,.cls-25,.cls-28,.cls-29,.cls-30,.cls-31,.cls-35,.cls-39,.cls-4,.cls-47,.cls-5,.cls-7,.cls-85{stroke:#586074;}.cls-24,.cls-6{fill:#7c869c;}.cls-108,.cls-150,.cls-16,.cls-163,.cls-25,.cls-8,.cls-85{fill:#586074;}.cls-148,.cls-21,.cls-86,.cls-9{opacity:0;}.cls-10,.cls-11,.cls-110,.cls-111,.cls-12,.cls-135,.cls-136,.cls-138,.cls-14,.cls-148,.cls-161,.cls-21,.cls-35,.cls-39,.cls-44,.cls-64,.cls-84,.cls-86,.cls-88,.cls-94{fill:#fff;}.cls-101,.cls-12,.cls-13,.cls-159,.cls-17,.cls-19,.cls-42,.cls-67,.cls-68,.cls-88,.cls-89{stroke:#31b491;}.cls-13,.cls-15,.cls-159,.cls-89{fill:#31b491;}.cls-100,.cls-103,.cls-104,.cls-105,.cls-159,.cls-17,.cls-18,.cls-28,.cls-29,.cls-30,.cls-31,.cls-67,.cls-68,.cls-93,.cls-95,.cls-96{stroke-width:2px;}.cls-18,.cls-45,.cls-46,.cls-81,.cls-92,.cls-93{stroke:#f07d42;}.cls-156,.cls-165,.cls-171,.cls-20,.cls-38,.cls-43,.cls-83,.cls-94{stroke:#ec4243;}.cls-107,.cls-132,.cls-22,.cls-90,.cls-99{stroke:#1f2229;}.cls-23{stroke-linecap:square;}.cls-24,.cls-64{stroke:#7c869c;}.cls-171,.cls-26,.cls-43{fill:#ec4243;}.cls-32,.cls-81{fill:#f07d42;}.cls-105,.cls-120,.cls-34{fill:#99a1b2;}.cls-36{clip-path:url(#clip-path);}.cls-104,.cls-37,.cls-44{stroke:#d3d7de;}.cls-48{fill:#ec1c24;}.cls-49{fill:#0057a7;}.cls-50{fill:#006838;}.cls-51{fill:#f48120;}.cls-52{fill:url(#linear-gradient);}.cls-53{fill:url(#linear-gradient-2);}.cls-54{fill:url(#linear-gradient-3);}.cls-55{fill:url(#linear-gradient-4);}.cls-56{fill:url(#linear-gradient-5);}.cls-57{fill:url(#linear-gradient-6);}.cls-58{fill:url(#linear-gradient-7);}.cls-59{fill:url(#linear-gradient-8);}.cls-60{fill:url(#linear-gradient-9);}.cls-61{fill:url(#linear-gradient-10);}.cls-62{fill:url(#linear-gradient-11);}.cls-63{fill:url(#linear-gradient-12);}.cls-65{clip-path:url(#clip-path-2);}.cls-103,.cls-105,.cls-117,.cls-120,.cls-66{stroke:#99a1b2;}.cls-69{fill:#e64a19;}.cls-70{fill:#5a2479;}.cls-71{fill:#8034ad;}.cls-72{fill:#f2f2f2;}.cls-73{fill:#f14336;}.cls-74{fill:#d32e2a;}.cls-75{fill:#ffd15c;}.cls-76{fill:#f8b64c;}.cls-77{fill:#40596b;}.cls-78{fill:#cdd6e0;}.cls-79{fill:#ff7058;}.cls-80{fill:#b8642f;}.cls-82{fill:#d3d7de;}.cls-111,.cls-86{fill-opacity:0;}.cls-107,.cls-132,.cls-90{fill:#1f2229;}.cls-132,.cls-90{opacity:0.6;}.cls-155,.cls-95,.cls-96{fill:#636c83;}.cls-135,.cls-136,.cls-155,.cls-95,.cls-96{stroke:#636c83;}.cls-97{stroke:#892320;}.cls-98{fill:#e9b449;}.cls-102{fill:#337eff;}.cls-106{clip-path:url(#clip-path-3);}.cls-107{opacity:0.4;}.cls-108,.cls-127{stroke-width:0.5px;}.cls-109{stroke:#000;}.cls-112{fill:#e2e4e9;}.cls-113,.cls-119,.cls-121{fill:#c5c9d3;}.cls-114,.cls-124,.cls-125{fill:#5a76f2;}.cls-115,.cls-122{fill:#899df5;}.cls-116,.cls-123{fill:#b8c4f9;}.cls-118,.cls-124{stroke:#5a76f2;}.cls-119{stroke:#bdbdbd;}.cls-121{stroke:#c5c9d3;}.cls-122{stroke:#899df5;}.cls-123{stroke:#b8c4f9;}.cls-126{stroke:#757575;}.cls-128{fill:#2b4eee;stroke:#2b4eee;}.cls-129{fill:#133bec;stroke:#133bec;}.cls-130{fill:#6442f0;}.cls-131{fill:#295394;}.cls-133{stroke-width:4px;}.cls-136,.cls-137,.cls-149,.cls-150,.cls-152,.cls-153,.cls-154,.cls-155,.cls-156,.cls-157,.cls-158{stroke-width:1.5px;}.cls-139{fill:url(#linear-gradient-13);}.cls-140{fill:url(#linear-gradient-14);}.cls-141{fill:url(#linear-gradient-15);}.cls-142{fill:url(#linear-gradient-16);}.cls-143{fill:url(#linear-gradient-17);}.cls-144{fill:url(#linear-gradient-18);}.cls-145{fill:url(#linear-gradient-19);}.cls-146{fill:#2680eb;}.cls-147{fill:red;}.cls-148,.cls-166,.cls-171{stroke-width:0;}.cls-149,.cls-152{stroke:#424857;}.cls-151{fill:#424857;}.cls-160{fill:url(#linear-gradient-20);}.cls-161,.cls-163{fill-rule:evenodd;}.cls-162{fill:#0077b5;}.cls-164{fill:url(#linear-gradient-21);}.cls-167{fill:#1ab6ff;}.cls-168{fill:#207245;}.cls-169{fill:#cb4424;}.cls-170{fill:#c50606;}</style>
  </defs>
  <path class="cls-2" d="M 473 95.5 L 463 95.5 C 462.174 95.495 461.505 94.826 461.5 94 L 461.5 84 C 461.505 83.174 462.174 82.505 463 82.5 L 473 82.5 C 473.826 82.505 474.495 83.174 474.5 84 L 474.5 94 C 474.5 94.828 473.828 95.5 473 95.5 Z"/>
  <polyline class="cls-3" points="472.5 86.5 466.5 92.5 463.5 89.5"/>
  <rect class="cls-1" x="460" y="81" width="16" height="16"/>
  <rect class="cls-21" x="403" y="81" width="16" height="16"/>
  <path class="cls-7" d="M 414.5 85.5 L 407.5 92.5 M 414.5 92.5 L 407.5 85.5"/>
  <rect class="cls-9" x="492" y="81" width="16" height="16"/>
  <rect class="cls-39" x="504.5" y="82.5" width="13" height="13" rx="1.5"/>
  <line class="cls-5" x1="508.5" y1="89.5" x2="513.5" y2="89.5"/>
  <rect class="cls-9" x="485" y="81" width="16" height="16"/>
  <rect class="cls-10" x="483.5" y="82.5" width="13" height="13" rx="1.5"/>
  <rect class="cls-11" x="421.331" y="82.669" width="13" height="13" rx="1.5"/>
  <line class="cls-20" x1="472.5" y1="62.5" x2="463.5" y2="71.5"/>
  <line class="cls-20" x1="463.5" y1="62.5" x2="472.55" y2="71.55"/>
  <rect class="cls-86" x="443.483" width="16" height="16" y="58.191"/>
  <path class="cls-4" d="M 444.983 69.901 L 444.983 72.191 C 444.983 72.467 445.207 72.691 445.483 72.691 L 447.773 72.691 C 447.909 72.693 448.039 72.639 448.133 72.541 L 457.273 63.401 C 457.667 63.01 457.667 62.372 457.273 61.981 L 455.693 60.401 C 455.302 60.007 454.664 60.007 454.273 60.401 L 445.133 69.541 C 445.035 69.635 444.981 69.765 444.983 69.901 Z"/>
  <line class="cls-4" x1="455.983" y1="64.691" x2="452.983" y2="61.691"/>
  <rect class="cls-86" x="485.975" y="57.321" width="16" height="16"/>
  <path class="cls-87" d="M 487.475 69.031 L 487.475 71.321 C 487.475 71.597 487.699 71.821 487.975 71.821 L 490.265 71.821 C 490.401 71.823 490.531 71.769 490.625 71.671 L 499.765 62.531 C 500.159 62.14 500.159 61.502 499.765 61.111 L 498.185 59.531 C 497.794 59.136 497.156 59.136 496.765 59.531 L 487.625 68.671 C 487.527 68.765 487.473 68.895 487.475 69.031 Z"/>
  <line class="cls-87" x1="498.475" y1="63.821" x2="495.475" y2="60.821"/>
  <rect class="cls-91" x="440.595" y="82.938" width="13" height="13" rx="1.5"/>
  <line class="cls-110" x1="444.595" y1="89.938" x2="449.595" y2="89.938"/>
  <circle class="cls-132" cx="536.418" cy="87.976" r="7.5"/>
  <path class="cls-27" d="M 538.918 85.476 L 533.918 90.476 M 538.918 90.476 L 533.918 85.476"/>
  <rect class="cls-1" width="16" height="16" x="421.05" y="59.022"/>
  <line class="cls-4" x1="422.05" y1="63.522" x2="435.05" y2="63.522"/>
  <line class="cls-4" x1="425.55" y1="60.022" x2="425.55" y2="73.022"/>
  <line class="cls-7" x1="433.55" y1="74.522" x2="433.55" y2="68.522"/>
  <line class="cls-7" x1="436.55" y1="71.522" x2="430.55" y2="71.522"/>
  <path class="cls-5" d="M 428.55 73.522 L 423.05 73.522 C 422.222 73.522 421.55 72.85 421.55 72.022 L 421.55 61.022 C 421.55 60.193 422.222 59.522 423.05 59.522 L 434.05 59.522 C 434.879 59.522 435.55 60.193 435.55 61.022 L 435.55 66.522"/>
</svg>